<svg xmlns="http://www.w3.org/2000/svg" viewBox="0 0 512 512">
  <rect width="512" height="512" fill="#111"/>
  <g transform="translate(256, 270)">
    <!-- outer flame -->
    <path d="M0,-155 C35,-130 55,-95 55,-60 C55,-30 40,-5 25,15 C45,-10 50,-40 45,-65 C60,-25 65,10 45,50 C30,80 0,105 0,105 C0,105 -30,80 -45,50 C-65,10 -60,-25 -45,-65 C-50,-40 -45,-10 -25,15 C-40,-5 -55,-30 -55,-60 C-55,-95 -35,-130 0,-155Z" fill="#FF6B4A"/>
    <!-- mid flame -->
    <path d="M0,-120 C25,-100 40,-72 40,-45 C40,-18 28,5 12,28 C32,-8 35,-35 32,-52 C42,-20 45,10 32,42 C22,65 0,82 0,82 C0,82 -22,65 -32,42 C-45,10 -42,-20 -32,-52 C-35,-35 -32,-8 -12,28 C-28,5 -40,-18 -40,-45 C-40,-72 -25,-100 0,-120Z" fill="#FFB84A"/>
    <!-- inner flame core -->
    <path d="M0,-90 C18,-75 28,-55 28,-35 C28,-15 18,5 0,30 C-18,5 -28,-15 -28,-35 C-28,-55 -18,-75 0,-90Z" fill="#FFF0D0"/>
  </g>
</svg>
